<svg xmlns="http://www.w3.org/2000/svg" xmlns:xlink="http://www.w3.org/1999/xlink" zoomAndPan="magnify" preserveAspectRatio="xMidYMid meet" version="1.0" viewBox="1.48 5.52 147.33 23.25"><defs><g/></defs><g fill="#ffffff" fill-opacity="1"><g transform="translate(1.009971, 28.536713)"><g><path d="M 5.828125 0.203125 C 4.828125 0.203125 3.921875 0.0078125 3.109375 -0.375 C 2.296875 -0.769531 1.65625 -1.34375 1.1875 -2.09375 C 0.71875 -2.851562 0.484375 -3.769531 0.484375 -4.84375 L 0.484375 -10.328125 L 4.796875 -10.328125 L 4.796875 -5.09375 C 4.796875 -4.707031 4.875 -4.398438 5.03125 -4.171875 C 5.195312 -3.941406 5.445312 -3.828125 5.78125 -3.828125 C 6.101562 -3.828125 6.34375 -3.929688 6.5 -4.140625 C 6.664062 -4.347656 6.75 -4.648438 6.75 -5.046875 L 6.75 -21.890625 L 11.15625 -21.890625 L 11.15625 -5.484375 C 11.15625 -4.335938 10.929688 -3.335938 10.484375 -2.484375 C 10.035156 -1.628906 9.40625 -0.96875 8.59375 -0.5 C 7.789062 -0.03125 6.867188 0.203125 5.828125 0.203125 Z M 5.828125 0.203125 "/></g></g></g><g fill="#ffffff" fill-opacity="1"><g transform="translate(12.882139, 28.536713)"><g><path d="M 4.484375 0.203125 C 3.085938 0.203125 2.128906 -0.210938 1.609375 -1.046875 C 1.097656 -1.878906 0.84375 -3.117188 0.84375 -4.765625 L 0.84375 -18.65625 L 5.328125 -18.65625 L 5.328125 -5.65625 C 5.328125 -5.539062 5.328125 -5.222656 5.328125 -4.703125 C 5.328125 -4.179688 5.40625 -3.8125 5.5625 -3.59375 C 5.726562 -3.382812 5.976562 -3.28125 6.3125 -3.28125 C 6.78125 -3.28125 7.070312 -3.472656 7.1875 -3.859375 C 7.300781 -4.242188 7.359375 -4.789062 7.359375 -5.5 L 7.359375 -5.65625 L 7.390625 -18.65625 L 11.828125 -18.65625 L 11.828125 0 L 7.359375 0 L 7.359375 -1.984375 C 7.054688 -1.203125 6.703125 -0.640625 6.296875 -0.296875 C 5.890625 0.0351562 5.285156 0.203125 4.484375 0.203125 Z M 4.484375 0.203125 "/></g></g></g><g fill="#ffffff" fill-opacity="1"><g transform="translate(25.595041, 28.536713)"><g><path d="M 6.015625 0.203125 C 2.328125 0.203125 0.484375 -1.664062 0.484375 -5.40625 L 0.515625 -6.875 L 4.96875 -6.875 L 5 -4.6875 C 5 -4.25 5.082031 -3.914062 5.25 -3.6875 C 5.414062 -3.457031 5.695312 -3.34375 6.09375 -3.34375 C 6.6875 -3.34375 6.984375 -3.828125 6.984375 -4.796875 C 6.984375 -5.503906 6.84375 -6.0625 6.5625 -6.46875 C 6.28125 -6.875 5.832031 -7.304688 5.21875 -7.765625 L 2.859375 -9.609375 C 2.035156 -10.234375 1.445312 -10.878906 1.09375 -11.546875 C 0.738281 -12.222656 0.5625 -13.175781 0.5625 -14.40625 C 0.5625 -15.351562 0.8125 -16.160156 1.3125 -16.828125 C 1.8125 -17.503906 2.476562 -18.007812 3.3125 -18.34375 C 4.144531 -18.6875 5.070312 -18.859375 6.09375 -18.859375 C 9.707031 -18.859375 11.515625 -17.054688 11.515625 -13.453125 L 11.515625 -13.09375 L 6.90625 -13.09375 L 6.90625 -13.8125 C 6.90625 -14.25 6.832031 -14.625 6.6875 -14.9375 C 6.539062 -15.257812 6.300781 -15.421875 5.96875 -15.421875 C 5.65625 -15.421875 5.414062 -15.332031 5.25 -15.15625 C 5.09375 -14.976562 5.015625 -14.734375 5.015625 -14.421875 C 5.015625 -13.742188 5.28125 -13.21875 5.8125 -12.84375 L 8.5625 -10.828125 C 9.550781 -10.097656 10.304688 -9.300781 10.828125 -8.4375 C 11.359375 -7.582031 11.625 -6.503906 11.625 -5.203125 C 11.625 -3.460938 11.128906 -2.125 10.140625 -1.1875 C 9.160156 -0.257812 7.785156 0.203125 6.015625 0.203125 Z M 6.015625 0.203125 "/></g></g></g><g fill="#ffffff" fill-opacity="1"><g transform="translate(37.696502, 28.536713)"><g><path d="M 4.734375 0.203125 C 3.566406 0.203125 2.757812 -0.0390625 2.3125 -0.53125 C 1.875 -1.03125 1.65625 -1.820312 1.65625 -2.90625 L 1.65625 -14.546875 L 0.40625 -14.546875 L 0.40625 -17.9375 L 1.65625 -17.9375 L 1.65625 -21.890625 L 5.984375 -21.890625 L 5.984375 -17.9375 L 7.265625 -17.9375 L 7.265625 -14.546875 L 5.984375 -14.546875 L 5.984375 -4.078125 C 5.984375 -3.753906 6.007812 -3.515625 6.0625 -3.359375 C 6.113281 -3.210938 6.25 -3.140625 6.46875 -3.140625 C 6.644531 -3.140625 6.804688 -3.144531 6.953125 -3.15625 C 7.109375 -3.175781 7.210938 -3.1875 7.265625 -3.1875 L 7.265625 -0.125 C 7.003906 -0.0625 6.628906 0.00390625 6.140625 0.078125 C 5.660156 0.160156 5.191406 0.203125 4.734375 0.203125 Z M 4.734375 0.203125 "/></g></g></g><g fill="#ffffff" fill-opacity="1"><g transform="translate(45.466912, 28.536713)"><g><path d="M 0.859375 -19.90625 L 0.859375 -23.015625 L 5.328125 -23.015625 L 5.328125 -19.90625 Z M 0.859375 0 L 0.859375 -18.65625 L 5.328125 -18.65625 L 5.328125 0 Z M 0.859375 0 "/></g></g></g><g fill="#ffffff" fill-opacity="1"><g transform="translate(51.657766, 28.536713)"><g><path d="M 0.890625 -18.65625 L 5.359375 -18.65625 L 5.359375 -16.28125 C 5.535156 -17.050781 5.851562 -17.671875 6.3125 -18.140625 C 6.78125 -18.617188 7.394531 -18.859375 8.15625 -18.859375 C 9.414062 -18.859375 10.34375 -18.472656 10.9375 -17.703125 C 11.539062 -16.929688 11.84375 -15.832031 11.84375 -14.40625 L 11.84375 0 L 7.46875 0 L 7.46875 -13.9375 C 7.46875 -14.34375 7.382812 -14.691406 7.21875 -14.984375 C 7.0625 -15.273438 6.8125 -15.421875 6.46875 -15.421875 C 6.007812 -15.421875 5.707031 -15.210938 5.5625 -14.796875 C 5.425781 -14.378906 5.359375 -13.820312 5.359375 -13.125 L 5.359375 0 L 0.890625 0 Z M 0.890625 -18.65625 "/></g></g></g><g fill="#ffffff" fill-opacity="1"><g transform="translate(64.370668, 28.536713)"><g/></g></g><g fill="#ffffff" fill-opacity="1"><g transform="translate(70.33223, 28.536713)"><g><path d="M 0.96875 -21.890625 L 6.75 -21.890625 C 8.5 -21.890625 9.75 -21.320312 10.5 -20.1875 C 11.25 -19.0625 11.625 -17.410156 11.625 -15.234375 C 11.625 -13.066406 11.289062 -11.429688 10.625 -10.328125 C 9.96875 -9.222656 8.78125 -8.671875 7.0625 -8.671875 L 5.28125 -8.671875 L 5.28125 0 L 0.96875 0 Z M 5.53125 -12.609375 C 6.050781 -12.609375 6.4375 -12.707031 6.6875 -12.90625 C 6.9375 -13.101562 7.097656 -13.382812 7.171875 -13.75 C 7.242188 -14.113281 7.28125 -14.632812 7.28125 -15.3125 C 7.28125 -16.226562 7.175781 -16.890625 6.96875 -17.296875 C 6.769531 -17.710938 6.367188 -17.921875 5.765625 -17.921875 L 5.28125 -17.921875 L 5.28125 -12.609375 Z M 5.53125 -12.609375 "/></g></g></g><g fill="#ffffff" fill-opacity="1"><g transform="translate(82.357256, 28.536713)"><g><path d="M 0.890625 -22.015625 L 5.484375 -22.015625 L 5.484375 -16.8125 C 5.953125 -18.175781 6.859375 -18.859375 8.203125 -18.859375 C 9.460938 -18.859375 10.414062 -18.457031 11.0625 -17.65625 C 11.707031 -16.863281 12.03125 -15.769531 12.03125 -14.375 L 12.03125 0 L 7.5625 0 L 7.5625 -14.09375 C 7.5625 -14.5 7.46875 -14.828125 7.28125 -15.078125 C 7.101562 -15.335938 6.832031 -15.46875 6.46875 -15.46875 C 6.164062 -15.46875 5.925781 -15.332031 5.75 -15.0625 C 5.570312 -14.800781 5.484375 -14.488281 5.484375 -14.125 L 5.484375 0 L 0.890625 0 Z M 0.890625 -22.015625 "/></g></g></g><g fill="#ffffff" fill-opacity="1"><g transform="translate(95.223016, 28.536713)"><g><path d="M 6.3125 0.203125 C 2.59375 0.203125 0.734375 -1.722656 0.734375 -5.578125 L 0.734375 -13.078125 C 0.734375 -14.835938 1.226562 -16.238281 2.21875 -17.28125 C 3.21875 -18.332031 4.582031 -18.859375 6.3125 -18.859375 C 8.050781 -18.859375 9.414062 -18.332031 10.40625 -17.28125 C 11.40625 -16.238281 11.90625 -14.835938 11.90625 -13.078125 L 11.90625 -5.578125 C 11.90625 -1.722656 10.039062 0.203125 6.3125 0.203125 Z M 6.3125 -3.234375 C 6.675781 -3.234375 6.941406 -3.359375 7.109375 -3.609375 C 7.273438 -3.867188 7.359375 -4.21875 7.359375 -4.65625 L 7.359375 -13.78125 C 7.359375 -14.875 7.007812 -15.421875 6.3125 -15.421875 C 5.625 -15.421875 5.28125 -14.875 5.28125 -13.78125 L 5.28125 -4.65625 C 5.28125 -4.21875 5.363281 -3.867188 5.53125 -3.609375 C 5.695312 -3.359375 5.957031 -3.234375 6.3125 -3.234375 Z M 6.3125 -3.234375 "/></g></g></g><g fill="#ffffff" fill-opacity="1"><g transform="translate(107.884962, 28.536713)"><g><path d="M 8.109375 0.203125 C 6.878906 0.203125 6.003906 -0.523438 5.484375 -1.984375 L 5.484375 0 L 0.890625 0 L 0.890625 -22.015625 L 5.484375 -22.015625 L 5.484375 -17.765625 C 6.191406 -18.492188 7.023438 -18.859375 7.984375 -18.859375 C 9.421875 -18.859375 10.453125 -18.425781 11.078125 -17.5625 C 11.710938 -16.707031 12.03125 -15.472656 12.03125 -13.859375 L 12.03125 -4.875 C 12.03125 -3.34375 11.707031 -2.113281 11.0625 -1.1875 C 10.414062 -0.257812 9.429688 0.203125 8.109375 0.203125 Z M 6.59375 -3.265625 C 6.90625 -3.265625 7.125 -3.359375 7.25 -3.546875 C 7.375 -3.742188 7.445312 -3.988281 7.46875 -4.28125 C 7.5 -4.582031 7.515625 -5.050781 7.515625 -5.6875 L 7.515625 -13.453125 C 7.515625 -14.117188 7.453125 -14.613281 7.328125 -14.9375 C 7.210938 -15.257812 6.960938 -15.421875 6.578125 -15.421875 C 6.148438 -15.421875 5.859375 -15.257812 5.703125 -14.9375 C 5.554688 -14.613281 5.484375 -14.132812 5.484375 -13.5 L 5.484375 -5.6875 C 5.484375 -4.863281 5.550781 -4.253906 5.6875 -3.859375 C 5.820312 -3.460938 6.125 -3.265625 6.59375 -3.265625 Z M 6.59375 -3.265625 "/></g></g></g><g fill="#ffffff" fill-opacity="1"><g transform="translate(120.64881, 28.536713)"><g><path d="M 0.859375 -19.90625 L 0.859375 -23.015625 L 5.328125 -23.015625 L 5.328125 -19.90625 Z M 0.859375 0 L 0.859375 -18.65625 L 5.328125 -18.65625 L 5.328125 0 Z M 0.859375 0 "/></g></g></g><g fill="#ffffff" fill-opacity="1"><g transform="translate(126.839664, 28.536713)"><g><path d="M 4.28125 0.203125 C 2.832031 0.203125 1.84375 -0.273438 1.3125 -1.234375 C 0.78125 -2.191406 0.515625 -3.566406 0.515625 -5.359375 C 0.515625 -6.816406 0.703125 -7.9375 1.078125 -8.71875 C 1.460938 -9.5 1.992188 -10.070312 2.671875 -10.4375 C 3.347656 -10.800781 4.382812 -11.203125 5.78125 -11.640625 L 7.015625 -12.046875 L 7.015625 -13.96875 C 7.015625 -14.457031 6.914062 -14.832031 6.71875 -15.09375 C 6.519531 -15.363281 6.285156 -15.5 6.015625 -15.5 C 5.773438 -15.5 5.566406 -15.382812 5.390625 -15.15625 C 5.210938 -14.9375 5.125 -14.640625 5.125 -14.265625 L 5.125 -13.15625 L 0.796875 -13.15625 L 0.796875 -13.765625 C 0.796875 -15.597656 1.222656 -16.90625 2.078125 -17.6875 C 2.929688 -18.46875 4.328125 -18.859375 6.265625 -18.859375 C 7.816406 -18.859375 9.078125 -18.453125 10.046875 -17.640625 C 11.015625 -16.835938 11.5 -15.695312 11.5 -14.21875 L 11.5 0 L 7.0625 0 L 7.0625 -2.21875 C 6.84375 -1.457031 6.488281 -0.863281 6 -0.4375 C 5.519531 -0.0078125 4.945312 0.203125 4.28125 0.203125 Z M 6.046875 -3.265625 C 6.378906 -3.265625 6.617188 -3.40625 6.765625 -3.6875 C 6.910156 -3.96875 6.984375 -4.3125 6.984375 -4.71875 L 6.984375 -9.90625 C 6.316406 -9.65625 5.828125 -9.332031 5.515625 -8.9375 C 5.203125 -8.550781 5.046875 -8.007812 5.046875 -7.3125 L 5.046875 -4.921875 C 5.046875 -3.816406 5.378906 -3.265625 6.046875 -3.265625 Z M 6.046875 -3.265625 "/></g></g></g><g fill="#ffffff" fill-opacity="1"><g transform="translate(139.144939, 28.536713)"><g><path d="M 0.359375 0 L 0.359375 -2.734375 L 5 -15.140625 L 0.5625 -15.140625 L 0.5625 -18.65625 L 9.609375 -18.65625 L 9.609375 -15.625 L 5.21875 -3.34375 L 9.65625 -3.34375 L 9.65625 0 Z M 0.359375 0 "/></g></g></g></svg>